<?xml version="1.0" encoding="utf-8"?>
<svg version="1.1" xmlns:xlink="http://www.w3.org/1999/xlink" width="25px" height="33px" xmlns="http://www.w3.org/2000/svg">
  <g transform="matrix(1 0 0 1 -26 -101 )">
    <path d="M 1.13636363636364 0  L 23.8636363636364 0  C 24.1714015151515 0  24.4377367424242 0.116629464285717  24.6626420454545 0.349888392857144  C 24.8875473484849 0.583147321428567  25 0.859374999999999  25 1.17857142857143  L 25 31.8214285714286  C 25 32.140625  24.8875473484849 32.4168526785714  24.6626420454545 32.6501116071429  C 24.4377367424242 32.8833705357143  24.1714015151515 33  23.8636363636364 33  L 1.13636363636364 33  C 0.828598484848485 33  0.562263257575758 32.8833705357143  0.337357954545455 32.6501116071429  C 0.112452651515152 32.4168526785714  0 32.140625  0 31.8214285714286  L 0 1.17857142857143  C 0 0.859374999999999  0.112452651515152 0.583147321428567  0.337357954545455 0.349888392857144  C 0.562263257575758 0.116629464285717  0.828598484848485 0  1.13636363636364 0  Z M 9.25071022727273 4.88002232142857  C 9.14417613636364 4.99051339285714  9.09090909090909 5.13169642857143  9.09090909090909 5.30357142857143  L 9.09090909090909 6.48214285714286  C 9.09090909090909 6.65401785714286  9.14417613636364 6.79520089285714  9.25071022727273 6.90569196428572  C 9.35724431818182 7.01618303571428  9.49337121212121 7.07142857142857  9.65909090909091 7.07142857142857  L 10.7954545454545 7.07142857142857  C 10.9611742424242 7.07142857142857  11.0973011363636 7.01618303571428  11.2038352272727 6.90569196428572  C 11.3103693181818 6.79520089285714  11.3636363636364 6.65401785714286  11.3636363636364 6.48214285714286  L 11.3636363636364 5.30357142857143  C 11.3636363636364 5.13169642857143  11.3103693181818 4.99051339285714  11.2038352272727 4.88002232142857  C 11.0973011363636 4.76953125  10.9611742424242 4.71428571428572  10.7954545454545 4.71428571428572  L 9.65909090909091 4.71428571428572  C 9.49337121212121 4.71428571428572  9.35724431818182 4.76953125  9.25071022727273 4.88002232142857  Z M 9.25071022727273 9.59430803571428  C 9.14417613636364 9.70479910714286  9.09090909090909 9.84598214285714  9.09090909090909 10.0178571428571  L 9.09090909090909 11.1964285714286  C 9.09090909090909 11.3683035714286  9.14417613636364 11.5094866071429  9.25071022727273 11.6199776785714  C 9.35724431818182 11.73046875  9.49337121212121 11.7857142857143  9.65909090909091 11.7857142857143  L 10.7954545454545 11.7857142857143  C 10.9611742424242 11.7857142857143  11.0973011363636 11.73046875  11.2038352272727 11.6199776785714  C 11.3103693181818 11.5094866071429  11.3636363636364 11.3683035714286  11.3636363636364 11.1964285714286  L 11.3636363636364 10.0178571428571  C 11.3636363636364 9.84598214285714  11.3103693181818 9.70479910714286  11.2038352272727 9.59430803571428  C 11.0973011363636 9.48381696428572  10.9611742424242 9.42857142857143  10.7954545454545 9.42857142857143  L 9.65909090909091 9.42857142857143  C 9.49337121212121 9.42857142857143  9.35724431818182 9.48381696428572  9.25071022727273 9.59430803571428  Z M 9.25071022727273 14.30859375  C 9.14417613636364 14.4190848214286  9.09090909090909 14.5602678571429  9.09090909090909 14.7321428571429  L 9.09090909090909 15.9107142857143  C 9.09090909090909 16.0825892857143  9.14417613636364 16.2237723214286  9.25071022727273 16.3342633928571  C 9.35724431818182 16.4447544642857  9.49337121212121 16.5  9.65909090909091 16.5  L 10.7954545454545 16.5  C 10.9611742424242 16.5  11.0973011363636 16.4447544642857  11.2038352272727 16.3342633928571  C 11.3103693181818 16.2237723214286  11.3636363636364 16.0825892857143  11.3636363636364 15.9107142857143  L 11.3636363636364 14.7321428571429  C 11.3636363636364 14.5602678571429  11.3103693181818 14.4190848214286  11.2038352272727 14.30859375  C 11.0973011363636 14.1981026785714  10.9611742424242 14.1428571428571  10.7954545454545 14.1428571428571  L 9.65909090909091 14.1428571428571  C 9.49337121212121 14.1428571428571  9.35724431818182 14.1981026785714  9.25071022727273 14.30859375  Z M 9.25071022727273 19.0228794642857  C 9.14417613636364 19.1333705357143  9.09090909090909 19.2745535714286  9.09090909090909 19.4464285714286  L 9.09090909090909 20.625  C 9.09090909090909 20.796875  9.14417613636364 20.9380580357143  9.25071022727273 21.0485491071429  C 9.35724431818182 21.1590401785714  9.49337121212121 21.2142857142857  9.65909090909091 21.2142857142857  L 10.7954545454545 21.2142857142857  C 10.9611742424242 21.2142857142857  11.0973011363636 21.1590401785714  11.2038352272727 21.0485491071429  C 11.3103693181818 20.9380580357143  11.3636363636364 20.796875  11.3636363636364 20.625  L 11.3636363636364 19.4464285714286  C 11.3636363636364 19.2745535714286  11.3103693181818 19.1333705357143  11.2038352272727 19.0228794642857  C 11.0973011363636 18.9123883928571  10.9611742424242 18.8571428571429  10.7954545454545 18.8571428571429  L 9.65909090909091 18.8571428571429  C 9.49337121212121 18.8571428571429  9.35724431818182 18.9123883928571  9.25071022727273 19.0228794642857  Z M 6.65838068181818 25.7628348214286  C 6.76491477272727 25.65234375  6.81818181818182 25.5111607142857  6.81818181818182 25.3392857142857  L 6.81818181818182 24.1607142857143  C 6.81818181818182 23.9888392857143  6.76491477272727 23.84765625  6.65838068181818 23.7371651785714  C 6.55184659090909 23.6266741071429  6.4157196969697 23.5714285714286  6.25 23.5714285714286  L 5.11363636363636 23.5714285714286  C 4.94791666666667 23.5714285714286  4.81178977272727 23.6266741071429  4.70525568181818 23.7371651785714  C 4.59872159090909 23.84765625  4.54545454545455 23.9888392857143  4.54545454545455 24.1607142857143  L 4.54545454545455 25.3392857142857  C 4.54545454545455 25.5111607142857  4.59872159090909 25.65234375  4.70525568181818 25.7628348214286  C 4.81178977272727 25.8733258928571  4.94791666666667 25.9285714285714  5.11363636363636 25.9285714285714  L 6.25 25.9285714285714  C 6.4157196969697 25.9285714285714  6.55184659090909 25.8733258928571  6.65838068181818 25.7628348214286  Z M 6.65838068181818 21.0485491071429  C 6.76491477272727 20.9380580357143  6.81818181818182 20.796875  6.81818181818182 20.625  L 6.81818181818182 19.4464285714286  C 6.81818181818182 19.2745535714286  6.76491477272727 19.1333705357143  6.65838068181818 19.0228794642857  C 6.55184659090909 18.9123883928571  6.4157196969697 18.8571428571429  6.25 18.8571428571429  L 5.11363636363636 18.8571428571429  C 4.94791666666667 18.8571428571429  4.81178977272727 18.9123883928571  4.70525568181818 19.0228794642857  C 4.59872159090909 19.1333705357143  4.54545454545455 19.2745535714286  4.54545454545455 19.4464285714286  L 4.54545454545455 20.625  C 4.54545454545455 20.796875  4.59872159090909 20.9380580357143  4.70525568181818 21.0485491071429  C 4.81178977272727 21.1590401785714  4.94791666666667 21.2142857142857  5.11363636363636 21.2142857142857  L 6.25 21.2142857142857  C 6.4157196969697 21.2142857142857  6.55184659090909 21.1590401785714  6.65838068181818 21.0485491071429  Z M 6.65838068181818 16.3342633928571  C 6.76491477272727 16.2237723214286  6.81818181818182 16.0825892857143  6.81818181818182 15.9107142857143  L 6.81818181818182 14.7321428571429  C 6.81818181818182 14.5602678571429  6.76491477272727 14.4190848214286  6.65838068181818 14.30859375  C 6.55184659090909 14.1981026785714  6.4157196969697 14.1428571428571  6.25 14.1428571428571  L 5.11363636363636 14.1428571428571  C 4.94791666666667 14.1428571428571  4.81178977272727 14.1981026785714  4.70525568181818 14.30859375  C 4.59872159090909 14.4190848214286  4.54545454545455 14.5602678571429  4.54545454545455 14.7321428571429  L 4.54545454545455 15.9107142857143  C 4.54545454545455 16.0825892857143  4.59872159090909 16.2237723214286  4.70525568181818 16.3342633928571  C 4.81178977272727 16.4447544642857  4.94791666666667 16.5  5.11363636363636 16.5  L 6.25 16.5  C 6.4157196969697 16.5  6.55184659090909 16.4447544642857  6.65838068181818 16.3342633928571  Z M 6.65838068181818 11.6199776785714  C 6.76491477272727 11.5094866071429  6.81818181818182 11.3683035714286  6.81818181818182 11.1964285714286  L 6.81818181818182 10.0178571428571  C 6.81818181818182 9.84598214285714  6.76491477272727 9.70479910714286  6.65838068181818 9.59430803571428  C 6.55184659090909 9.48381696428572  6.4157196969697 9.42857142857143  6.25 9.42857142857143  L 5.11363636363636 9.42857142857143  C 4.94791666666667 9.42857142857143  4.81178977272727 9.48381696428572  4.70525568181818 9.59430803571428  C 4.59872159090909 9.70479910714286  4.54545454545455 9.84598214285714  4.54545454545455 10.0178571428571  L 4.54545454545455 11.1964285714286  C 4.54545454545455 11.3683035714286  4.59872159090909 11.5094866071429  4.70525568181818 11.6199776785714  C 4.81178977272727 11.73046875  4.94791666666667 11.7857142857143  5.11363636363636 11.7857142857143  L 6.25 11.7857142857143  C 6.4157196969697 11.7857142857143  6.55184659090909 11.73046875  6.65838068181818 11.6199776785714  Z M 6.65838068181818 6.90569196428572  C 6.76491477272727 6.79520089285714  6.81818181818182 6.65401785714286  6.81818181818182 6.48214285714286  L 6.81818181818182 5.30357142857143  C 6.81818181818182 5.13169642857143  6.76491477272727 4.99051339285714  6.65838068181818 4.88002232142857  C 6.55184659090909 4.76953125  6.4157196969697 4.71428571428572  6.25 4.71428571428572  L 5.11363636363636 4.71428571428572  C 4.94791666666667 4.71428571428572  4.81178977272727 4.76953125  4.70525568181818 4.88002232142857  C 4.59872159090909 4.99051339285714  4.54545454545455 5.13169642857143  4.54545454545455 5.30357142857143  L 4.54545454545455 6.48214285714286  C 4.54545454545455 6.65401785714286  4.59872159090909 6.79520089285714  4.70525568181818 6.90569196428572  C 4.81178977272727 7.01618303571428  4.94791666666667 7.07142857142857  5.11363636363636 7.07142857142857  L 6.25 7.07142857142857  C 6.4157196969697 7.07142857142857  6.55184659090909 7.01618303571428  6.65838068181818 6.90569196428572  Z M 15.7492897727273 30.4771205357143  C 15.8558238636364 30.3666294642857  15.9090909090909 30.2254464285714  15.9090909090909 30.0535714285714  L 15.9090909090909 26.5178571428571  C 15.9090909090909 26.3459821428571  15.8558238636364 26.2047991071429  15.7492897727273 26.0943080357143  C 15.6427556818182 25.9838169642857  15.5066287878788 25.9285714285714  15.3409090909091 25.9285714285714  L 9.65909090909091 25.9285714285714  C 9.49337121212121 25.9285714285714  9.35724431818182 25.9838169642857  9.25071022727273 26.0943080357143  C 9.14417613636364 26.2047991071429  9.09090909090909 26.3459821428571  9.09090909090909 26.5178571428571  L 9.09090909090909 30.0535714285714  C 9.09090909090909 30.2254464285714  9.14417613636364 30.3666294642857  9.25071022727273 30.4771205357143  C 9.35724431818182 30.5876116071429  9.49337121212121 30.6428571428571  9.65909090909091 30.6428571428571  L 15.3409090909091 30.6428571428571  C 15.5066287878788 30.6428571428571  15.6427556818182 30.5876116071429  15.7492897727273 30.4771205357143  Z M 15.7492897727273 21.0485491071429  C 15.8558238636364 20.9380580357143  15.9090909090909 20.796875  15.9090909090909 20.625  L 15.9090909090909 19.4464285714286  C 15.9090909090909 19.2745535714286  15.8558238636364 19.1333705357143  15.7492897727273 19.0228794642857  C 15.6427556818182 18.9123883928571  15.5066287878788 18.8571428571429  15.3409090909091 18.8571428571429  L 14.2045454545455 18.8571428571429  C 14.0388257575758 18.8571428571429  13.9026988636364 18.9123883928571  13.7961647727273 19.0228794642857  C 13.6896306818182 19.1333705357143  13.6363636363636 19.2745535714286  13.6363636363636 19.4464285714286  L 13.6363636363636 20.625  C 13.6363636363636 20.796875  13.6896306818182 20.9380580357143  13.7961647727273 21.0485491071429  C 13.9026988636364 21.1590401785714  14.0388257575758 21.2142857142857  14.2045454545455 21.2142857142857  L 15.3409090909091 21.2142857142857  C 15.5066287878788 21.2142857142857  15.6427556818182 21.1590401785714  15.7492897727273 21.0485491071429  Z M 15.7492897727273 16.3342633928571  C 15.8558238636364 16.2237723214286  15.9090909090909 16.0825892857143  15.9090909090909 15.9107142857143  L 15.9090909090909 14.7321428571429  C 15.9090909090909 14.5602678571429  15.8558238636364 14.4190848214286  15.7492897727273 14.30859375  C 15.6427556818182 14.1981026785714  15.5066287878788 14.1428571428571  15.3409090909091 14.1428571428571  L 14.2045454545455 14.1428571428571  C 14.0388257575758 14.1428571428571  13.9026988636364 14.1981026785714  13.7961647727273 14.30859375  C 13.6896306818182 14.4190848214286  13.6363636363636 14.5602678571429  13.6363636363636 14.7321428571429  L 13.6363636363636 15.9107142857143  C 13.6363636363636 16.0825892857143  13.6896306818182 16.2237723214286  13.7961647727273 16.3342633928571  C 13.9026988636364 16.4447544642857  14.0388257575758 16.5  14.2045454545455 16.5  L 15.3409090909091 16.5  C 15.5066287878788 16.5  15.6427556818182 16.4447544642857  15.7492897727273 16.3342633928571  Z M 15.7492897727273 11.6199776785714  C 15.8558238636364 11.5094866071429  15.9090909090909 11.3683035714286  15.9090909090909 11.1964285714286  L 15.9090909090909 10.0178571428571  C 15.9090909090909 9.84598214285714  15.8558238636364 9.70479910714286  15.7492897727273 9.59430803571428  C 15.6427556818182 9.48381696428572  15.5066287878788 9.42857142857143  15.3409090909091 9.42857142857143  L 14.2045454545455 9.42857142857143  C 14.0388257575758 9.42857142857143  13.9026988636364 9.48381696428572  13.7961647727273 9.59430803571428  C 13.6896306818182 9.70479910714286  13.6363636363636 9.84598214285714  13.6363636363636 10.0178571428571  L 13.6363636363636 11.1964285714286  C 13.6363636363636 11.3683035714286  13.6896306818182 11.5094866071429  13.7961647727273 11.6199776785714  C 13.9026988636364 11.73046875  14.0388257575758 11.7857142857143  14.2045454545455 11.7857142857143  L 15.3409090909091 11.7857142857143  C 15.5066287878788 11.7857142857143  15.6427556818182 11.73046875  15.7492897727273 11.6199776785714  Z M 15.7492897727273 6.90569196428572  C 15.8558238636364 6.79520089285714  15.9090909090909 6.65401785714286  15.9090909090909 6.48214285714286  L 15.9090909090909 5.30357142857143  C 15.9090909090909 5.13169642857143  15.8558238636364 4.99051339285714  15.7492897727273 4.88002232142857  C 15.6427556818182 4.76953125  15.5066287878788 4.71428571428572  15.3409090909091 4.71428571428572  L 14.2045454545455 4.71428571428572  C 14.0388257575758 4.71428571428572  13.9026988636364 4.76953125  13.7961647727273 4.88002232142857  C 13.6896306818182 4.99051339285714  13.6363636363636 5.13169642857143  13.6363636363636 5.30357142857143  L 13.6363636363636 6.48214285714286  C 13.6363636363636 6.65401785714286  13.6896306818182 6.79520089285714  13.7961647727273 6.90569196428572  C 13.9026988636364 7.01618303571428  14.0388257575758 7.07142857142857  14.2045454545455 7.07142857142857  L 15.3409090909091 7.07142857142857  C 15.5066287878788 7.07142857142857  15.6427556818182 7.01618303571428  15.7492897727273 6.90569196428572  Z M 20.2947443181818 25.7628348214286  C 20.4012784090909 25.65234375  20.4545454545455 25.5111607142857  20.4545454545455 25.3392857142857  L 20.4545454545455 24.1607142857143  C 20.4545454545455 23.9888392857143  20.4012784090909 23.84765625  20.2947443181818 23.7371651785714  C 20.1882102272727 23.6266741071429  20.0520833333333 23.5714285714286  19.8863636363636 23.5714285714286  L 18.75 23.5714285714286  C 18.5842803030303 23.5714285714286  18.4481534090909 23.6266741071429  18.3416193181818 23.7371651785714  C 18.2350852272727 23.84765625  18.1818181818182 23.9888392857143  18.1818181818182 24.1607142857143  L 18.1818181818182 25.3392857142857  C 18.1818181818182 25.5111607142857  18.2350852272727 25.65234375  18.3416193181818 25.7628348214286  C 18.4481534090909 25.8733258928571  18.5842803030303 25.9285714285714  18.75 25.9285714285714  L 19.8863636363636 25.9285714285714  C 20.0520833333333 25.9285714285714  20.1882102272727 25.8733258928571  20.2947443181818 25.7628348214286  Z M 20.2947443181818 21.0485491071429  C 20.4012784090909 20.9380580357143  20.4545454545455 20.796875  20.4545454545455 20.625  L 20.4545454545455 19.4464285714286  C 20.4545454545455 19.2745535714286  20.4012784090909 19.1333705357143  20.2947443181818 19.0228794642857  C 20.1882102272727 18.9123883928571  20.0520833333333 18.8571428571429  19.8863636363636 18.8571428571429  L 18.75 18.8571428571429  C 18.5842803030303 18.8571428571429  18.4481534090909 18.9123883928571  18.3416193181818 19.0228794642857  C 18.2350852272727 19.1333705357143  18.1818181818182 19.2745535714286  18.1818181818182 19.4464285714286  L 18.1818181818182 20.625  C 18.1818181818182 20.796875  18.2350852272727 20.9380580357143  18.3416193181818 21.0485491071429  C 18.4481534090909 21.1590401785714  18.5842803030303 21.2142857142857  18.75 21.2142857142857  L 19.8863636363636 21.2142857142857  C 20.0520833333333 21.2142857142857  20.1882102272727 21.1590401785714  20.2947443181818 21.0485491071429  Z M 20.2947443181818 16.3342633928571  C 20.4012784090909 16.2237723214286  20.4545454545455 16.0825892857143  20.4545454545455 15.9107142857143  L 20.4545454545455 14.7321428571429  C 20.4545454545455 14.5602678571429  20.4012784090909 14.4190848214286  20.2947443181818 14.30859375  C 20.1882102272727 14.1981026785714  20.0520833333333 14.1428571428571  19.8863636363636 14.1428571428571  L 18.75 14.1428571428571  C 18.5842803030303 14.1428571428571  18.4481534090909 14.1981026785714  18.3416193181818 14.30859375  C 18.2350852272727 14.4190848214286  18.1818181818182 14.5602678571429  18.1818181818182 14.7321428571429  L 18.1818181818182 15.9107142857143  C 18.1818181818182 16.0825892857143  18.2350852272727 16.2237723214286  18.3416193181818 16.3342633928571  C 18.4481534090909 16.4447544642857  18.5842803030303 16.5  18.75 16.5  L 19.8863636363636 16.5  C 20.0520833333333 16.5  20.1882102272727 16.4447544642857  20.2947443181818 16.3342633928571  Z M 20.2947443181818 11.6199776785714  C 20.4012784090909 11.5094866071429  20.4545454545455 11.3683035714286  20.4545454545455 11.1964285714286  L 20.4545454545455 10.0178571428571  C 20.4545454545455 9.84598214285714  20.4012784090909 9.70479910714286  20.2947443181818 9.59430803571428  C 20.1882102272727 9.48381696428572  20.0520833333333 9.42857142857143  19.8863636363636 9.42857142857143  L 18.75 9.42857142857143  C 18.5842803030303 9.42857142857143  18.4481534090909 9.48381696428572  18.3416193181818 9.59430803571428  C 18.2350852272727 9.70479910714286  18.1818181818182 9.84598214285714  18.1818181818182 10.0178571428571  L 18.1818181818182 11.1964285714286  C 18.1818181818182 11.3683035714286  18.2350852272727 11.5094866071429  18.3416193181818 11.6199776785714  C 18.4481534090909 11.73046875  18.5842803030303 11.7857142857143  18.75 11.7857142857143  L 19.8863636363636 11.7857142857143  C 20.0520833333333 11.7857142857143  20.1882102272727 11.73046875  20.2947443181818 11.6199776785714  Z M 20.2947443181818 6.90569196428572  C 20.4012784090909 6.79520089285714  20.4545454545455 6.65401785714286  20.4545454545455 6.48214285714286  L 20.4545454545455 5.30357142857143  C 20.4545454545455 5.13169642857143  20.4012784090909 4.99051339285714  20.2947443181818 4.88002232142857  C 20.1882102272727 4.76953125  20.0520833333333 4.71428571428572  19.8863636363636 4.71428571428572  L 18.75 4.71428571428572  C 18.5842803030303 4.71428571428572  18.4481534090909 4.76953125  18.3416193181818 4.88002232142857  C 18.2350852272727 4.99051339285714  18.1818181818182 5.13169642857143  18.1818181818182 5.30357142857143  L 18.1818181818182 6.48214285714286  C 18.1818181818182 6.65401785714286  18.2350852272727 6.79520089285714  18.3416193181818 6.90569196428572  C 18.4481534090909 7.01618303571428  18.5842803030303 7.07142857142857  18.75 7.07142857142857  L 19.8863636363636 7.07142857142857  C 20.0520833333333 7.07142857142857  20.1882102272727 7.01618303571428  20.2947443181818 6.90569196428572  Z " fill-rule="nonzero" fill="#666666" stroke="none" transform="matrix(1 0 0 1 26 101 )" />
  </g>
</svg>