<?xml version="1.0" encoding="utf-8"?>
<svg version="1.1" xmlns:xlink="http://www.w3.org/1999/xlink" width="30px" height="25px" xmlns="http://www.w3.org/2000/svg">
  <g transform="matrix(1 0 0 1 -1886 -37 )">
    <path d="M 12.2066326530612 22.861328125  C 12.1938775510205 22.9329427083333  12.2066326530612 23.0208333333333  12.2448979591836 23.125  C 12.2448979591836 23.1770833333333  12.2512755102041 23.3072916666667  12.2640306122448 23.515625  C 12.2767857142858 23.7239583333333  12.2799744897959 23.896484375  12.2735969387754 24.033203125  C 12.2672193877552 24.169921875  12.248086734694 24.3229166666667  12.2161989795918 24.4921875  C 12.1843112244899 24.6614583333333  12.1205357142858 24.7884114583333  12.0248724489795 24.873046875  C 11.9292091836735 24.9576822916667  11.7984693877552 25  11.6326530612246 25  L 5.51020408163276 25  C 3.99234693877543 25  2.69451530612241 24.4498697916667  1.61670918367349 23.349609375  C 0.538903061224573 22.2493489583333  0 20.9244791666667  0 19.375  L 0 5.625  C 0 4.07552083333333  0.538903061224573 2.75065104166667  1.61670918367349 1.65039062500001  C 2.69451530612241 0.550130208333326  3.99234693877543 0  5.51020408163276 0  L 11.6326530612246 0  C 11.7984693877552 0  11.9419642857142 0.0618489583333258  12.0631377551019 0.185546875000006  C 12.1843112244899 0.309244791666673  12.2448979591836 0.455729166666664  12.2448979591836 0.624999999999995  C 12.2448979591836 0.677083333333324  12.2512755102041 0.807291666666669  12.2640306122448 1.015625  C 12.2767857142858 1.22395833333333  12.2799744897959 1.396484375  12.2735969387754 1.533203125  C 12.2672193877552 1.669921875  12.248086734694 1.82291666666667  12.2161989795918 1.9921875  C 12.1843112244899 2.16145833333333  12.1205357142858 2.28841145833333  12.0248724489795 2.373046875  C 11.9292091836735 2.45768229166666  11.7984693877552 2.49999999999999  11.6326530612246 2.49999999999999  L 5.51020408163276 2.49999999999999  C 4.66836734693879 2.49999999999999  3.94770408163276 2.80598958333333  3.34821428571422 3.41796875  C 2.7487244897959 4.02994791666667  2.44897959183663 4.765625  3 5.625  L 3 19.375  C 2.44897959183663 20.234375  2.7487244897959 20.9700520833333  3.34821428571422 21.58203125  C 3.94770408163276 22.1940104166667  4.66836734693879 22.5  5.51020408163276 22.5  L 11.0204081632653 22.5  L 11.2308673469388 22.5  L 11.4795918367347 22.5  C 11.4795918367347 22.5  11.5529336734694 22.5065104166667  11.6996173469388 22.51953125  C 11.8463010204082 22.5325520833333  11.9196428571429 22.5520833333333  11.9196428571429 22.578125  C 11.9196428571429 22.6041666666667  11.970663265306 22.6399739583333  12.0727040816328 22.685546875  C 12.1747448979593 22.7311197916667  12.2193877551019 22.7897135416667  12.2066326530612 22.861328125  Z M 29.6364795918366 11.62109375  C 29.8788265306123 11.8684895833333  30 12.1614583333333  30 12.5  C 30 12.8385416666667  29.8788265306123 13.1315104166667  29.6364795918366 13.37890625  L 19.2283163265306 24.00390625  C 18.9859693877552 24.2513020833333  18.6989795918366 24.375  18.3673469387754 24.375  C 18.0357142857142 24.375  17.7487244897959 24.2513020833333  17.5063775510205 24.00390625  C 17.2640306122448 23.7565104166667  17.1428571428571 23.4635416666667  17.1428571428571 23.125  L 17.1428571428571 17.5  L 8.57142857142867 17.5  C 8.23979591836724 17.5  7.95280612244892 17.3763020833333  7.71045918367349 17.12890625  C 7.46811224489807 16.8815104166667  7.34693877551013 16.5885416666667  7.34693877551013 16.25  L 7.34693877551013 8.75  C 7.34693877551013 8.41145833333333  7.46811224489807 8.11848958333333  7.71045918367349 7.87109375  C 7.95280612244892 7.62369791666666  8.23979591836724 7.5  8.57142857142867 7.5  L 17.1428571428571 7.5  L 17.1428571428571 1.875  C 17.1428571428571 1.53645833333332  17.2640306122448 1.24348958333333  17.5063775510205 0.996093749999993  C 17.7487244897959 0.748697916666661  18.0357142857142 0.624999999999995  18.3673469387754 0.624999999999995  C 18.6989795918366 0.624999999999995  18.9859693877552 0.748697916666661  19.2283163265306 0.996093749999993  L 29.6364795918366 11.62109375  Z " fill-rule="nonzero" fill="#ffffff" stroke="none" transform="matrix(1 0 0 1 1886 37 )" />
  </g>
</svg>