<?xml version="1.0" encoding="utf-8"?>
<svg version="1.1" xmlns:xlink="http://www.w3.org/1999/xlink" width="25px" height="21px" xmlns="http://www.w3.org/2000/svg">
  <g transform="matrix(1 0 0 1 -1534 -39 )">
    <path d="M 24.6907552083333 17.11171875  C 24.8969184027778 17.31953125  25 17.565625  25 17.85  L 25 19.95  C 25 20.234375  24.8969184027778 20.48046875  24.6907552083333 20.68828125  C 24.4845920138889 20.89609375  24.2404513888889 21  23.9583333333333 21  L 1.04166666666667 21  C 0.759548611111111 21  0.515407986111111 20.89609375  0.309244791666667 20.68828125  C 0.103081597222222 20.48046875  0 20.234375  0 19.95  L 0 17.85  C 0 17.565625  0.103081597222222 17.31953125  0.309244791666667 17.11171875  C 0.515407986111111 16.90390625  0.759548611111111 16.8  1.04166666666667 16.8  L 23.9583333333333 16.8  C 24.2404513888889 16.8  24.4845920138889 16.90390625  24.6907552083333 17.11171875  Z M 24.6907552083333 8.71171875  C 24.8969184027778 8.91953125  25 9.165625  25 9.45  L 25 11.55  C 25 11.834375  24.8969184027778 12.08046875  24.6907552083333 12.28828125  C 24.4845920138889 12.49609375  24.2404513888889 12.6  23.9583333333333 12.6  L 1.04166666666667 12.6  C 0.759548611111111 12.6  0.515407986111111 12.49609375  0.309244791666667 12.28828125  C 0.103081597222222 12.08046875  0 11.834375  0 11.55  L 0 9.45  C 0 9.165625  0.103081597222222 8.91953125  0.309244791666667 8.71171875  C 0.515407986111111 8.50390625  0.759548611111111 8.4  1.04166666666667 8.4  L 23.9583333333333 8.4  C 24.2404513888889 8.4  24.4845920138889 8.50390625  24.6907552083333 8.71171875  Z M 24.6907552083333 0.311718750000001  C 24.8969184027778 0.519531249999998  25 0.765624999999998  25 1.05  L 25 3.15  C 25 3.434375  24.8969184027778 3.68046875  24.6907552083333 3.88828125  C 24.4845920138889 4.09609375  24.2404513888889 4.2  23.9583333333333 4.2  L 1.04166666666667 4.2  C 0.759548611111111 4.2  0.515407986111111 4.09609375  0.309244791666667 3.88828125  C 0.103081597222222 3.68046875  0 3.434375  0 3.15  L 0 1.05  C 0 0.765624999999998  0.103081597222222 0.519531249999998  0.309244791666667 0.311718750000001  C 0.515407986111111 0.103906249999999  0.759548611111111 0  1.04166666666667 0  L 23.9583333333333 0  C 24.2404513888889 0  24.4845920138889 0.103906249999999  24.6907552083333 0.311718750000001  Z " fill-rule="nonzero" fill="#ffffff" stroke="none" transform="matrix(1 0 0 1 1534 39 )" />
  </g>
</svg>