<?xml version="1.0" encoding="utf-8"?>
<svg version="1.1" xmlns:xlink="http://www.w3.org/1999/xlink" width="36px" height="30px" xmlns="http://www.w3.org/2000/svg">
  <g transform="matrix(1 0 0 1 -1663 156 )">
    <path d="M 35.5546875 24.4453125  C 35.8515625 24.7421875  36 25.09375  36 25.5  L 36 28.5  C 36 28.90625  35.8515625 29.2578125  35.5546875 29.5546875  C 35.2578125 29.8515625  34.90625 30  34.5 30  L 1.5 30  C 1.09375 30  0.7421875 29.8515625  0.4453125 29.5546875  C 0.1484375 29.2578125  0 28.90625  0 28.5  L 0 25.5  C 0 25.09375  0.1484375 24.7421875  0.4453125 24.4453125  C 0.7421875 24.1484375  1.09375 24  1.5 24  L 34.5 24  C 34.90625 24  35.2578125 24.1484375  35.5546875 24.4453125  Z M 35.5546875 12.4453125  C 35.8515625 12.7421875  36 13.09375  36 13.5  L 36 16.5  C 36 16.90625  35.8515625 17.2578125  35.5546875 17.5546875  C 35.2578125 17.8515625  34.90625 18  34.5 18  L 1.5 18  C 1.09375 18  0.7421875 17.8515625  0.4453125 17.5546875  C 0.1484375 17.2578125  0 16.90625  0 16.5  L 0 13.5  C 0 13.09375  0.1484375 12.7421875  0.4453125 12.4453125  C 0.7421875 12.1484375  1.09375 12  1.5 12  L 34.5 12  C 34.90625 12  35.2578125 12.1484375  35.5546875 12.4453125  Z M 35.5546875 0.445312500000001  C 35.8515625 0.742187499999998  36 1.09375  36 1.5  L 36 4.5  C 36 4.90625  35.8515625 5.2578125  35.5546875 5.5546875  C 35.2578125 5.8515625  34.90625 6  34.5 6  L 1.5 6  C 1.09375 6  0.7421875 5.8515625  0.4453125 5.5546875  C 0.1484375 5.2578125  0 4.90625  0 4.5  L 0 1.5  C 0 1.09375  0.1484375 0.742187499999998  0.4453125 0.445312500000001  C 0.7421875 0.148437499999998  1.09375 0  1.5 0  L 34.5 0  C 34.90625 0  35.2578125 0.148437499999998  35.5546875 0.445312500000001  Z " fill-rule="nonzero" fill="#daf5f4" stroke="none" transform="matrix(1 0 0 1 1663 -156 )" />
  </g>
</svg>