<?xml version="1.0" encoding="utf-8"?>
<svg version="1.1" xmlns:xlink="http://www.w3.org/1999/xlink" width="25px" height="25px" xmlns="http://www.w3.org/2000/svg">
  <g transform="matrix(1 0 0 1 -26 -178 )">
    <path d="M 7.64508928571429 0.990513392857142  C 9.1889880952381 0.330171130952381  10.8072916666667 0  12.5 0  C 14.1927083333333 0  15.8110119047619 0.330171130952381  17.3549107142857 0.990513392857142  C 18.8988095238095 1.6508556547619  20.2287946428571 2.5390625  21.3448660714286 3.65513392857143  C 22.4609375 4.77120535714286  23.3491443452381 6.10119047619047  24.0094866071429 7.64508928571428  C 24.6698288690476 9.18898809523809  25 10.8072916666667  25 12.5  C 25 14.1927083333333  24.6698288690476 15.8110119047619  24.0094866071429 17.3549107142857  C 23.3491443452381 18.8988095238095  22.4609375 20.2287946428571  21.3448660714286 21.3448660714286  C 20.2287946428571 22.4609375  18.8988095238095 23.3491443452381  17.3549107142857 24.0094866071429  C 15.8110119047619 24.6698288690476  14.1927083333333 25  12.5 25  C 10.8072916666667 25  9.1889880952381 24.6698288690476  7.64508928571429 24.0094866071429  C 6.10119047619048 23.3491443452381  4.77120535714286 22.4609375  3.65513392857143 21.3448660714286  C 2.5390625 20.2287946428571  1.6508556547619 18.8988095238095  0.990513392857143 17.3549107142857  C 0.330171130952381 15.8110119047619  0 14.1927083333333  0 12.5  C 0 10.8072916666667  0.330171130952381 9.18898809523809  0.990513392857143 7.64508928571428  C 1.6508556547619 6.10119047619047  2.5390625 4.77120535714286  3.65513392857143 3.65513392857143  C 4.77120535714286 2.5390625  6.10119047619048 1.6508556547619  7.64508928571429 0.990513392857142  Z M 17.5362723214286 3.04129464285714  C 15.9458705357143 2.20424107142857  14.2671130952381 1.78571428571428  12.5 1.78571428571428  C 10.7328869047619 1.78571428571428  9.05412946428571 2.20424107142857  7.46372767857143 3.04129464285714  L 10.1702008928571 5.74776785714286  C 10.932849702381 5.48735119047619  11.7094494047619 5.35714285714286  12.5 5.35714285714286  C 13.2905505952381 5.35714285714286  14.067150297619 5.48735119047619  14.8297991071429 5.74776785714286  L 17.5362723214286 3.04129464285714  Z M 1.78571428571429 12.5  C 1.78571428571429 14.2671130952381  2.20424107142857 15.9458705357143  3.04129464285714 17.5362723214286  L 5.74776785714286 14.8297991071429  C 5.48735119047619 14.067150297619  5.35714285714286 13.2905505952381  5.35714285714286 12.5  C 5.35714285714286 11.7094494047619  5.48735119047619 10.932849702381  5.74776785714286 10.1702008928571  L 3.04129464285714 7.46372767857143  C 2.20424107142857 9.05412946428572  1.78571428571429 10.7328869047619  1.78571428571429 12.5  Z M 7.46372767857143 21.9587053571429  C 9.05412946428571 22.7957589285714  10.7328869047619 23.2142857142857  12.5 23.2142857142857  C 14.2671130952381 23.2142857142857  15.9458705357143 22.7957589285714  17.5362723214286 21.9587053571429  L 14.8297991071429 19.2522321428571  C 14.067150297619 19.5126488095238  13.2905505952381 19.6428571428571  12.5 19.6428571428571  C 11.7094494047619 19.6428571428571  10.932849702381 19.5126488095238  10.1702008928571 19.2522321428571  L 7.46372767857143 21.9587053571429  Z M 8.71233258928571 16.2876674107143  C 9.75864955357143 17.333984375  11.0212053571429 17.8571428571429  12.5 17.8571428571429  C 13.9787946428571 17.8571428571429  15.2413504464286 17.333984375  16.2876674107143 16.2876674107143  C 17.333984375 15.2413504464286  17.8571428571429 13.9787946428571  17.8571428571429 12.5  C 17.8571428571429 11.0212053571429  17.333984375 9.75864955357143  16.2876674107143 8.71233258928572  C 15.2413504464286 7.666015625  13.9787946428571 7.14285714285714  12.5 7.14285714285714  C 11.0212053571429 7.14285714285714  9.75864955357143 7.666015625  8.71233258928571 8.71233258928572  C 7.666015625 9.75864955357143  7.14285714285714 11.0212053571429  7.14285714285714 12.5  C 7.14285714285714 13.9787946428571  7.666015625 15.2413504464286  8.71233258928571 16.2876674107143  Z M 19.6428571428571 12.5  C 19.6428571428571 13.2905505952381  19.5126488095238 14.067150297619  19.2522321428571 14.8297991071429  L 21.9587053571429 17.5362723214286  C 22.7957589285714 15.9458705357143  23.2142857142857 14.2671130952381  23.2142857142857 12.5  C 23.2142857142857 10.7328869047619  22.7957589285714 9.05412946428572  21.9587053571429 7.46372767857143  L 19.2522321428571 10.1702008928571  C 19.5126488095238 10.932849702381  19.6428571428571 11.7094494047619  19.6428571428571 12.5  Z " fill-rule="nonzero" fill="#666666" stroke="none" transform="matrix(1 0 0 1 26 178 )" />
  </g>
</svg>