<?xml version="1.0" encoding="utf-8"?>
<svg version="1.1" xmlns:xlink="http://www.w3.org/1999/xlink" width="43px" height="50px" xmlns="http://www.w3.org/2000/svg">
  <g transform="matrix(1 0 0 1 -732 -318 )">
    <path d="M 21.5559895833333 28.5714285714286  C 25.7365451388889 28.5714285714286  27.8268229166667 30.1339285714286  27.8268229166667 33.2589285714286  C 27.8268229166667 34.858630952381  27.6681857638889 36.6908482142857  27.3509114583333 38.7555803571429  C 26.7723524305556 42.7548363095238  26.2591145833333 45.6659226190476  25.8111979166667 47.4888392857143  C 25.4006076388889 49.1629464285714  23.9822048611111 50  21.5559895833333 50  C 19.1297743055556 50  17.7113715277778 49.1629464285714  17.30078125 47.4888392857143  C 16.8528645833333 45.6659226190476  16.3396267361111 42.7548363095238  15.7610677083333 38.7555803571429  C 15.4437934027778 36.7094494047619  15.28515625 34.8772321428571  15.28515625 33.2589285714286  C 15.28515625 30.1339285714286  17.3754340277778 28.5714285714286  21.5559895833333 28.5714285714286  Z M 41.1663411458333 12.8208705357143  C 42.3887803819444 15.5459449404762  43 18.4151785714286  43 21.4285714285714  C 43 25.8928571428571  41.7495659722222 29.9293154761905  39.2486979166667 33.5379464285714  C 36.7478298611111 37.1465773809524  33.4817708333333 39.750744047619  29.4505208333333 41.3504464285714  C 29.3012152777778 41.40625  29.1612413194444 41.3783482142857  29.0305989583333 41.2667410714286  C 28.8999565972222 41.1551339285714  28.8439670138889 41.015625  28.8626302083333 40.8482142857143  C 28.9932725694444 39.9553571428571  29.0865885416667 39.3415178571429  29.142578125 39.0066964285714  C 29.2172309027778 38.4114583333333  29.2732204861111 37.9743303571429  29.310546875 37.6953125  C 29.3292100694444 37.5279017857143  29.4131944444444 37.4162946428571  29.5625 37.3604910714286  C 32.5299479166667 35.8537946428571  34.9141710069444 33.6774553571429  36.7151692708333 30.8314732142857  C 38.5161675347222 27.9854910714286  39.4166666666667 24.8511904761905  39.4166666666667 21.4285714285714  C 39.4166666666667 18.0803571428571  38.5674913194444 15.0065104166667  36.869140625 12.20703125  C 35.1707899305556 9.40755208333333  32.8658854166667 7.2265625  29.9544270833333 5.6640625  C 27.04296875 4.1015625  23.8982204861111 3.41331845238095  20.5201822916667 3.59933035714286  C 18.2059461805556 3.72953869047619  15.9943576388889 4.296875  13.8854166666667 5.30133928571428  C 11.7764756944444 6.30580357142857  9.97081163194444 7.61253720238095  8.46842447916667 9.22154017857143  C 6.96603732638889 10.8305431547619  5.77159288194444 12.7092633928571  4.88509114583333 14.8577008928571  C 3.99858940972222 17.0061383928571  3.56467013888889 19.242931547619  3.58333333333333 21.5680803571429  C 3.60199652777778 24.9906994047619  4.52582465277778 28.120349702381  6.35481770833333 30.95703125  C 8.18381076388889 33.793712797619  10.58203125 35.9468005952381  13.5494791666667 37.4162946428571  C 13.6801215277778 37.4720982142857  13.7641059027778 37.5837053571429  13.8014322916667 37.7511160714286  C 13.857421875 38.1417410714286  13.9134114583333 38.5602678571429  13.9694010416667 39.0066964285714  C 13.9880642361111 39.1741071428571  14.0347222222222 39.4763764880952  14.109375 39.9135044642857  C 14.1840277777778 40.3506324404762  14.2400173611111 40.6808035714286  14.27734375 40.9040178571429  C 14.2960069444444 41.0714285714286  14.2353515625 41.2109375  14.0953776041667 41.3225446428571  C 13.9554036458333 41.4341517857143  13.8107638888889 41.4527529761905  13.6614583333333 41.3783482142857  C 10.8993055555556 40.2994791666667  8.46375868055556 38.7230282738095  6.35481770833333 36.6489955357143  C 4.24587673611111 34.574962797619  2.62684461805556 32.1196056547619  1.49772135416667 29.2829241071429  C 0.368598090277778 26.4462425595238  -0.121310763888889 23.4747023809524  0.0279947916666667 20.3683035714286  C 0.158637152777778 17.7083333333333  0.774522569444444 15.1646205357143  1.87565104166667 12.7371651785714  C 2.97677951388889 10.3097098214286  4.41851128472222 8.19847470238095  6.20084635416667 6.40345982142857  C 7.98318142361111 4.60844494047619  10.0827907986111 3.14360119047619  12.4996744791667 2.00892857142857  C 14.9165581597222 0.874255952380948  17.4594184027778 0.223214285714285  20.1282552083333 0.0558035714285698  C 23.1890190972222 -0.130208333333337  26.1331380208333 0.302269345238093  28.9606119791667 1.35323660714285  C 31.7880859375 2.40420386904762  34.2236328125 3.8969494047619  36.2672526041667 5.83147321428572  C 38.3108723958333 7.76599702380952  39.9439019097222 10.0957961309524  41.1663411458333 12.8208705357143  Z M 25.9931640625 16.11328125  C 27.2156032986111 17.3316592261905  27.8268229166667 18.8058035714286  27.8268229166667 20.5357142857143  C 27.8268229166667 22.265625  27.2156032986111 23.7397693452381  25.9931640625 24.9581473214286  C 24.7707248263889 26.176525297619  23.2916666666667 26.7857142857143  21.5559895833333 26.7857142857143  C 19.8203125 26.7857142857143  18.3412543402778 26.176525297619  17.1188151041667 24.9581473214286  C 15.8963758680556 23.7397693452381  15.28515625 22.265625  15.28515625 20.5357142857143  C 15.28515625 18.8058035714286  15.8963758680556 17.3316592261905  17.1188151041667 16.11328125  C 18.3412543402778 14.8949032738095  19.8203125 14.2857142857143  21.5559895833333 14.2857142857143  C 23.2916666666667 14.2857142857143  24.7707248263889 14.8949032738095  25.9931640625 16.11328125  Z M 33.8597005208333 14.0764508928571  C 35.2127821180556 16.3178943452381  35.8893229166667 18.7686011904762  35.8893229166667 21.4285714285714  C 35.8893229166667 23.6979166666667  35.3900824652778 25.8231026785714  34.3916015625 27.8041294642857  C 33.3931206597222 29.78515625  32.0260416666667 31.4360119047619  30.2903645833333 32.7566964285714  C 30.1410590277778 32.8683035714286  29.9917534722222 32.8869047619048  29.8424479166667 32.8125  C 29.6931423611111 32.7380952380952  29.5998263888889 32.6078869047619  29.5625 32.421875  C 29.4505208333333 31.4546130952381  29.1799045138889 30.5989583333333  28.7506510416667 29.8549107142857  C 28.6200086805556 29.6688988095238  28.6480034722222 29.4828869047619  28.8346354166667 29.296875  C 29.9171006944444 28.2924107142857  30.7662760416667 27.1112351190476  31.3821614583333 25.7533482142857  C 31.998046875 24.3954613095238  32.3059895833333 22.953869047619  32.3059895833333 21.4285714285714  C 32.3059895833333 19.3638392857143  31.7600911458333 17.4665178571429  30.6682942708333 15.7366071428571  C 29.5764973958333 14.0066964285714  28.1067708333333 12.6906622023809  26.2591145833333 11.7885044642857  C 24.4114583333333 10.8863467261905  22.4331597222222 10.546875  20.32421875 10.7700892857143  C 17.8420138888889 11.0491071428571  15.705078125 12.1000744047619  13.9134114583333 13.9229910714286  C 12.1217447916667 15.7459077380952  11.1046006944444 17.8943452380952  10.8619791666667 20.3683035714286  C 10.6753472222222 22.0796130952381  10.8946397569444 23.7165178571429  11.5198567708333 25.2790178571429  C 12.1450737847222 26.8415178571429  13.0642361111111 28.1808035714286  14.27734375 29.296875  C 14.4639756944444 29.4828869047619  14.4919704861111 29.6688988095238  14.361328125 29.8549107142857  C 13.9134114583333 30.6175595238095  13.6427951388889 31.4825148809524  13.5494791666667 32.4497767857143  C 13.5121527777778 32.6171875  13.4188368055556 32.7380952380952  13.26953125 32.8125  C 13.1202256944444 32.8869047619048  12.9709201388889 32.8683035714286  12.8216145833333 32.7566964285714  C 11.0486111111111 31.3802083333333  9.66286892361111 29.6781994047619  8.66438802083333 27.6506696428571  C 7.66590711805556 25.6231398809524  7.18532986111111 23.4468005952381  7.22265625 21.1216517857143  C 7.27864583333333 18.6848958333333  7.92252604166667 16.4155505952381  9.154296875 14.3136160714286  C 10.3860677083333 12.211681547619  12.0377604166667 10.5236235119048  14.109375 9.24944196428572  C 16.1809895833333 7.97526041666666  18.4299045138889 7.28236607142857  20.8561197916667 7.17075892857143  C 23.5436197916667 7.04055059523809  26.0444878472222 7.59858630952381  28.3587239583333 8.84486607142857  C 30.6729600694444 10.0911458333333  32.5066189236111 11.8350074404762  33.8597005208333 14.0764508928571  Z " fill-rule="nonzero" fill="#FF0000" stroke="none" transform="matrix(1 0 0 1 732 318 )" />
  </g>
</svg>